<?xml version="1.0" encoding="UTF-8" standalone="no"?>
<svg
   width="600"
   height="520"
   viewBox="0 0 600 520"
   fill="none"
   version="1.1"
   id="svg100"
   sodipodi:docname="Logo_Black 2.svg"
   inkscape:version="1.1.2 (0a00cf5339, 2022-02-04)"
   xmlns:inkscape="http://www.inkscape.org/namespaces/inkscape"
   xmlns:sodipodi="http://sodipodi.sourceforge.net/DTD/sodipodi-0.dtd"
   xmlns="http://www.w3.org/2000/svg"
   xmlns:svg="http://www.w3.org/2000/svg">
  <sodipodi:namedview
     id="namedview102"
     pagecolor="#ffffff"
     bordercolor="#666666"
     borderopacity="1.0"
     inkscape:pageshadow="2"
     inkscape:pageopacity="0.0"
     inkscape:pagecheckerboard="0"
     showgrid="false"
     width="600px"
     inkscape:zoom="1.245"
     inkscape:cx="242.97189"
     inkscape:cy="300.40161"
     inkscape:window-width="2560"
     inkscape:window-height="1403"
     inkscape:window-x="2560"
     inkscape:window-y="0"
     inkscape:window-maximized="1"
     inkscape:current-layer="svg100" />
  <g
     clip-path="url(#clip0)"
     id="g78"
     transform="matrix(2.3351274,0,0,2.3351274,-206.08478,-454.50307)">
    <path
       d="m 227.9,340.4 c -10.4,39 27.4,60 62.7,69.2 18,4.8 34.9,5.5 53.5,5.5 L 268.8,287.4 c -18.5,13.9 -35.5,32.6 -40.9,53 z M 117.4,368.6 C 156,326 206.6,291.3 259.5,271.7 l -43.8,-74.3 z"
       fill="url(#paint0_linear)"
       id="path2"
       style="fill:url(#paint0_linear)" />
    <path
       d="M 261.4,275 C 193,308 133,358.5 90.2,415.9 l 144.6,-0.4 c -73.1,-35.1 -33.2,-94.6 32.1,-140.4"
       fill="url(#paint1_linear)"
       id="path4"
       style="fill:url(#paint1_linear)" />
    <path
       d="m 284.6,253.1 13.4,-3.6 -5.1,12.6 7.7,11.3 -13.9,-1 -8.5,10.5 -3.5,-13.1 -13.1,-4.8 11.8,-7.1 0.5,-13.6 z"
       fill="url(#paint2_linear)"
       id="path6"
       style="fill:url(#paint2_linear)" />
  </g>
  <defs
     id="defs98">
    <linearGradient
       id="paint0_linear"
       x1="230.73599"
       y1="415.091"
       x2="230.73599"
       y2="197.409"
       gradientUnits="userSpaceOnUse">
      <stop
         offset="0.00558659"
         stop-color="#0000FF"
         id="stop80" />
      <stop
         offset="1"
         stop-color="#BF9DCD"
         id="stop82" />
    </linearGradient>
    <linearGradient
       id="paint1_linear"
       x1="124.651"
       y1="450.23599"
       x2="283.39001"
       y2="291.49701"
       gradientUnits="userSpaceOnUse">
      <stop
         stop-color="#B192D1"
         id="stop85" />
      <stop
         offset="1"
         stop-color="#1814F9"
         id="stop87" />
    </linearGradient>
    <linearGradient
       id="paint2_linear"
       x1="261.621"
       y1="263.642"
       x2="300.629"
       y2="263.642"
       gradientUnits="userSpaceOnUse">
      <stop
         stop-color="#662D91"
         id="stop90" />
      <stop
         offset="1"
         stop-color="#F7931E"
         id="stop92" />
    </linearGradient>
    <clipPath
       id="clip0">
      <rect
         width="1000"
         height="600"
         fill="#ffffff"
         id="rect95"
         x="0"
         y="0" />
    </clipPath>
  </defs>
</svg>
